<svg xmlns="http://www.w3.org/2000/svg" version="1.1" xmlns:xlink="http://www.w3.org/1999/xlink" viewBox="0 0 200 200"><rect width="200" height="200" fill="url('#gradient')"></rect><defs><linearGradient id="gradient" gradientTransform="rotate(45 0.5 0.5)"><stop offset="0%" stop-color="#000000"></stop><stop offset="100%" stop-color="#000000"></stop></linearGradient></defs><g><g fill="#ffffff" transform="matrix(4.627667587245795,0,0,4.627667587245795,5.037797214246822,132.9020920296635)" stroke="#ffffff" stroke-width="0"><path d="M4.50-14.22L4.50-2.64L10.47-2.64L10.47 0L1.07 0L1.07-14.22L4.50-14.22ZM20.73-8.57L20.73-6.03L15.34-6.03L15.34-2.64L21.71-2.64L21.71 0L11.91 0L11.91-14.22L21.73-14.22L21.73-11.57L15.34-11.57L15.34-8.57L20.73-8.57ZM25.80-14.22L28.62-3.87L31.46-14.22L35.28-14.22L30.50 0L26.75 0L22.00-14.22L25.80-14.22ZM39.97-14.22L39.97 0L36.55 0L36.55-14.22L39.97-14.22Z"></path></g></g></svg>